<svg width="69" height="66" viewBox="0 0 69 66" fill="none" xmlns="http://www.w3.org/2000/svg">
<g clip-path="url(#clip0_2444_25274)">
<path d="M37.4903 7.96423L37.496 7.95664L37.5014 7.94883C37.9025 7.36852 38.2433 7.12751 38.5395 7.01326C38.8531 6.89229 39.1738 6.88708 39.629 6.88708H66.8946C67.5991 6.88708 67.94 7.28385 67.94 7.6645V13.2V22.5677V54.929C67.94 55.6955 67.6099 56.483 67.0638 57.0798C66.5192 57.6751 65.7908 58.0484 65.018 58.0484H3.422C2.6492 58.0484 1.92083 57.6751 1.37617 57.0798C0.830082 56.483 0.5 55.6955 0.5 54.929V13.0935C0.5 11.5367 1.8443 10.0806 3.422 10.0806H35.655H35.9053L36.0552 9.88036L37.4903 7.96423Z" fill="#31364A" stroke="#7D839A"/>
<path d="M37.4903 7.96423L37.496 7.95664L37.5014 7.94883C37.9025 7.36852 38.2433 7.12751 38.5395 7.01326C38.8531 6.89229 39.1738 6.88708 39.629 6.88708H66.8946C67.5991 6.88708 67.94 7.28385 67.94 7.6645V13.2V22.5677V46.7323C67.94 47.5177 67.5784 48.2502 66.9547 48.7953L0.562043 12.2997C0.887428 11.0808 2.04177 10.0806 3.422 10.0806H35.655H35.9053L36.0552 9.88036L37.4903 7.96423Z" fill="#31364A" stroke="#7D839A"/>
<path d="M67.94 46.7323C67.94 47.4876 67.6057 48.0566 66.9591 48.5858L4.27611 14.3387H64.0952L67.94 16.8756V22.5678V46.7323Z" fill="#31364A" stroke="#7D839A"/>
<path d="M62.9206 13.8387H5.51929V54.2904H62.9206V13.8387Z" fill="#939AB5"/>
<path d="M35.824 53.7904V14.3387H62.4207V53.7904H35.824Z" fill="#7D839A" stroke="#7D839A"/>
<g filter="url(#filter0_d_2444_25274)">
<path d="M68.44 56.2581C68.44 58.0677 66.8946 59.4516 65.018 59.4516H3.422C1.54542 59.4516 0 58.0677 0 56.2581L1.10387 22.5129C1.10387 20.7032 2.64929 19 4.52587 19H64.0245C65.9011 19 67.4465 20.7032 67.4465 22.5129L68.44 56.2581Z" fill="url(#paint0_linear_2444_25274)"/>
<path d="M1.6036 22.5292L1.60387 22.5211V22.5129C1.60387 20.9561 2.94817 19.5 4.52587 19.5H64.0245C65.6022 19.5 66.9465 20.9561 66.9465 22.5129V22.5203L66.9467 22.5276L67.94 56.2652C67.9359 57.7577 66.6551 58.9516 65.018 58.9516H3.422C1.78514 58.9516 0.50447 57.7581 0.500012 56.2659L1.6036 22.5292Z" stroke="url(#paint1_linear_2444_25274)"/>
</g>
<path d="M29 38V36C29 33.2386 31.2386 31 34 31C36.0503 31 37.8124 32.2341 38.584 34M34 42.5V44.5M30.8 49H37.2C38.8802 49 39.7202 49 40.362 48.673C40.9265 48.3854 41.3854 47.9265 41.673 47.362C42 46.7202 42 45.8802 42 44.2V42.8C42 41.1198 42 40.2798 41.673 39.638C41.3854 39.0735 40.9265 38.6146 40.362 38.327C39.7202 38 38.8802 38 37.2 38H30.8C29.1198 38 28.2798 38 27.638 38.327C27.0735 38.6146 26.6146 39.0735 26.327 39.638C26 40.2798 26 41.1198 26 42.8V44.2C26 45.8802 26 46.7202 26.327 47.362C26.6146 47.9265 27.0735 48.3854 27.638 48.673C28.2798 49 29.1198 49 30.8 49Z" stroke="#282828" stroke-width="2" stroke-linecap="round" stroke-linejoin="round"/>
<path d="M29 36V34C29 31.2386 31.2386 29 34 29C36.0503 29 37.8124 30.2341 38.584 32M34 40.5V42.5M30.8 47H37.2C38.8802 47 39.7202 47 40.362 46.673C40.9265 46.3854 41.3854 45.9265 41.673 45.362C42 44.7202 42 43.8802 42 42.2V40.8C42 39.1198 42 38.2798 41.673 37.638C41.3854 37.0735 40.9265 36.6146 40.362 36.327C39.7202 36 38.8802 36 37.2 36H30.8C29.1198 36 28.2798 36 27.638 36.327C27.0735 36.6146 26.6146 37.0735 26.327 37.638C26 38.2798 26 39.1198 26 40.8V42.2C26 43.8802 26 44.7202 26.327 45.362C26.6146 45.9265 27.0735 46.3854 27.638 46.673C28.2798 47 29.1198 47 30.8 47Z" stroke="#DCDCDC" stroke-width="2.5" stroke-linecap="round" stroke-linejoin="round"/>
</g>
<defs>
<filter id="filter0_d_2444_25274" x="-4" y="15" width="76.4399" height="48.4517" filterUnits="userSpaceOnUse" color-interpolation-filters="sRGB">
<feFlood flood-opacity="0" result="BackgroundImageFix"/>
<feColorMatrix in="SourceAlpha" type="matrix" values="0 0 0 0 0 0 0 0 0 0 0 0 0 0 0 0 0 0 127 0" result="hardAlpha"/>
<feOffset/>
<feGaussianBlur stdDeviation="2"/>
<feComposite in2="hardAlpha" operator="out"/>
<feColorMatrix type="matrix" values="0 0 0 0 0.490196 0 0 0 0 0.513726 0 0 0 0 0.603922 0 0 0 1 0"/>
<feBlend mode="normal" in2="BackgroundImageFix" result="effect1_dropShadow_2444_25274"/>
<feBlend mode="normal" in="SourceGraphic" in2="effect1_dropShadow_2444_25274" result="shape"/>
</filter>
<linearGradient id="paint0_linear_2444_25274" x1="34.22" y1="19" x2="34.22" y2="59.4516" gradientUnits="userSpaceOnUse">
<stop stop-color="#107297"/>
<stop offset="1" stop-color="#278993"/>
</linearGradient>
<linearGradient id="paint1_linear_2444_25274" x1="34.22" y1="19" x2="34.22" y2="59.4516" gradientUnits="userSpaceOnUse">
<stop stop-color="#107297"/>
<stop offset="1" stop-color="#278993"/>
</linearGradient>
<clipPath id="clip0_2444_25274">
<rect width="68.44" height="66" fill="white"/>
</clipPath>
</defs>
</svg>
