<svg width="69" height="66" viewBox="0 0 69 66" fill="none" xmlns="http://www.w3.org/2000/svg">
<g clip-path="url(#clip0_2444_25289)">
<path d="M37.4903 7.96423L37.496 7.95664L37.5014 7.94883C37.9025 7.36852 38.2433 7.12751 38.5395 7.01326C38.8531 6.89229 39.1738 6.88708 39.629 6.88708H66.8946C67.5991 6.88708 67.94 7.28385 67.94 7.6645V13.2V22.5677V54.929C67.94 55.6955 67.6099 56.483 67.0638 57.0798C66.5192 57.6751 65.7908 58.0484 65.018 58.0484H3.422C2.6492 58.0484 1.92083 57.6751 1.37617 57.0798C0.830082 56.483 0.5 55.6955 0.5 54.929V13.0935C0.5 11.5367 1.8443 10.0806 3.422 10.0806H35.655H35.9053L36.0552 9.88036L37.4903 7.96423Z" fill="#31364A" stroke="#7D839A"/>
<path d="M37.4903 7.96423L37.496 7.95664L37.5014 7.94883C37.9025 7.36852 38.2433 7.12751 38.5395 7.01326C38.8531 6.89229 39.1738 6.88708 39.629 6.88708H66.8946C67.5991 6.88708 67.94 7.28385 67.94 7.6645V13.2V22.5677V46.7323C67.94 47.5177 67.5784 48.2502 66.9547 48.7953L0.562043 12.2997C0.887428 11.0808 2.04177 10.0806 3.422 10.0806H35.655H35.9053L36.0552 9.88036L37.4903 7.96423Z" fill="#31364A" stroke="#7D839A"/>
<path d="M67.94 46.7323C67.94 47.4876 67.6057 48.0566 66.9591 48.5858L4.27611 14.3387H64.0952L67.94 16.8756V22.5678V46.7323Z" fill="#31364A" stroke="#7D839A"/>
<path d="M62.9206 13.8387H5.51929V54.2904H62.9206V13.8387Z" fill="#939AB5"/>
<path d="M35.824 53.7904V14.3387H62.4207V53.7904H35.824Z" fill="#7D839A" stroke="#7D839A"/>
<g filter="url(#filter0_d_2444_25289)">
<path d="M68.44 56.2581C68.44 58.0677 66.8946 59.4516 65.018 59.4516H3.422C1.54542 59.4516 0 58.0677 0 56.2581L1.10387 22.5129C1.10387 20.7032 2.64929 19 4.52587 19H64.0245C65.9011 19 67.4465 20.7032 67.4465 22.5129L68.44 56.2581Z" fill="url(#paint0_linear_2444_25289)"/>
<path d="M1.6036 22.5292L1.60387 22.5211V22.5129C1.60387 20.9561 2.94817 19.5 4.52587 19.5H64.0245C65.6022 19.5 66.9465 20.9561 66.9465 22.5129V22.5203L66.9467 22.5276L67.94 56.2652C67.9359 57.7577 66.6551 58.9516 65.018 58.9516H3.422C1.78514 58.9516 0.50447 57.7581 0.500012 56.2659L1.6036 22.5292Z" stroke="url(#paint1_linear_2444_25289)"/>
</g>
<path d="M34 36V40M34 44H34.01M25 35.9414V44.0585C25 44.4012 25 44.5725 25.0505 44.7253C25.0951 44.8605 25.1682 44.9845 25.2646 45.0892C25.3737 45.2076 25.5234 45.2908 25.823 45.4572L33.223 49.5683C33.5066 49.7258 33.6484 49.8046 33.7985 49.8355C33.9315 49.8628 34.0685 49.8628 34.2015 49.8355C34.3516 49.8046 34.4934 49.7258 34.777 49.5683L42.177 45.4572C42.4766 45.2908 42.6263 45.2076 42.7354 45.0892C42.8318 44.9845 42.9049 44.8605 42.9495 44.7253C43 44.5725 43 44.4012 43 44.0585V35.9414C43 35.5988 43 35.4274 42.9495 35.2746C42.9049 35.1395 42.8318 35.0154 42.7354 34.9107C42.6263 34.7924 42.4766 34.7092 42.177 34.5428L34.777 30.4316C34.4934 30.2741 34.3516 30.1953 34.2015 30.1644C34.0685 30.1371 33.9315 30.1371 33.7985 30.1644C33.6484 30.1953 33.5066 30.2741 33.223 30.4316L25.823 34.5428C25.5234 34.7092 25.3737 34.7924 25.2646 34.9107C25.1682 35.0154 25.0951 35.1395 25.0505 35.2746C25 35.4274 25 35.5988 25 35.9414Z" stroke="#282828" stroke-width="2" stroke-linecap="round" stroke-linejoin="round"/>
<path d="M34 34V38M34 42H34.01M25 33.9414V42.0585C25 42.4012 25 42.5725 25.0505 42.7253C25.0951 42.8605 25.1682 42.9845 25.2646 43.0892C25.3737 43.2076 25.5234 43.2908 25.823 43.4572L33.223 47.5683C33.5066 47.7258 33.6484 47.8046 33.7985 47.8355C33.9315 47.8628 34.0685 47.8628 34.2015 47.8355C34.3516 47.8046 34.4934 47.7258 34.777 47.5683L42.177 43.4572C42.4766 43.2908 42.6263 43.2076 42.7354 43.0892C42.8318 42.9845 42.9049 42.8605 42.9495 42.7253C43 42.5725 43 42.4012 43 42.0585V33.9414C43 33.5988 43 33.4274 42.9495 33.2746C42.9049 33.1395 42.8318 33.0154 42.7354 32.9107C42.6263 32.7924 42.4766 32.7092 42.177 32.5428L34.777 28.4316C34.4934 28.2741 34.3516 28.1953 34.2015 28.1644C34.0685 28.1371 33.9315 28.1371 33.7985 28.1644C33.6484 28.1953 33.5066 28.2741 33.223 28.4316L25.823 32.5428C25.5234 32.7092 25.3737 32.7924 25.2646 32.9107C25.1682 33.0154 25.0951 33.1395 25.0505 33.2746C25 33.4274 25 33.5988 25 33.9414Z" stroke="#DCDCDC" stroke-width="2.5" stroke-linecap="round" stroke-linejoin="round"/>
</g>
<defs>
<filter id="filter0_d_2444_25289" x="-4" y="15" width="76.4399" height="48.4517" filterUnits="userSpaceOnUse" color-interpolation-filters="sRGB">
<feFlood flood-opacity="0" result="BackgroundImageFix"/>
<feColorMatrix in="SourceAlpha" type="matrix" values="0 0 0 0 0 0 0 0 0 0 0 0 0 0 0 0 0 0 127 0" result="hardAlpha"/>
<feOffset/>
<feGaussianBlur stdDeviation="2"/>
<feComposite in2="hardAlpha" operator="out"/>
<feColorMatrix type="matrix" values="0 0 0 0 0.490196 0 0 0 0 0.513726 0 0 0 0 0.603922 0 0 0 1 0"/>
<feBlend mode="normal" in2="BackgroundImageFix" result="effect1_dropShadow_2444_25289"/>
<feBlend mode="normal" in="SourceGraphic" in2="effect1_dropShadow_2444_25289" result="shape"/>
</filter>
<linearGradient id="paint0_linear_2444_25289" x1="34.22" y1="19" x2="34.22" y2="59.4516" gradientUnits="userSpaceOnUse">
<stop stop-color="#107297"/>
<stop offset="1" stop-color="#278993"/>
</linearGradient>
<linearGradient id="paint1_linear_2444_25289" x1="34.22" y1="19" x2="34.22" y2="59.4516" gradientUnits="userSpaceOnUse">
<stop stop-color="#107297"/>
<stop offset="1" stop-color="#278993"/>
</linearGradient>
<clipPath id="clip0_2444_25289">
<rect width="68.44" height="66" fill="white"/>
</clipPath>
</defs>
</svg>
