<svg width="69" height="66" viewBox="0 0 69 66" fill="none" xmlns="http://www.w3.org/2000/svg">
<g clip-path="url(#clip0_2444_25259)">
<path d="M37.4903 7.96423L37.496 7.95664L37.5014 7.94883C37.9025 7.36852 38.2433 7.12751 38.5395 7.01326C38.8531 6.89229 39.1738 6.88708 39.629 6.88708H66.8946C67.5991 6.88708 67.94 7.28385 67.94 7.6645V13.2V22.5677V54.929C67.94 55.6955 67.6099 56.483 67.0638 57.0798C66.5192 57.6751 65.7908 58.0484 65.018 58.0484H3.422C2.6492 58.0484 1.92083 57.6751 1.37617 57.0798C0.830082 56.483 0.5 55.6955 0.5 54.929V13.0935C0.5 11.5367 1.8443 10.0806 3.422 10.0806H35.655H35.9053L36.0552 9.88036L37.4903 7.96423Z" fill="#31364A" stroke="#7D839A"/>
<path d="M37.4903 7.96423L37.496 7.95664L37.5014 7.94883C37.9025 7.36852 38.2433 7.12751 38.5395 7.01326C38.8531 6.89229 39.1738 6.88708 39.629 6.88708H66.8946C67.5991 6.88708 67.94 7.28385 67.94 7.6645V13.2V22.5677V46.7323C67.94 47.5177 67.5784 48.2502 66.9547 48.7953L0.562043 12.2997C0.887428 11.0808 2.04177 10.0806 3.422 10.0806H35.655H35.9053L36.0552 9.88036L37.4903 7.96423Z" fill="#31364A" stroke="#7D839A"/>
<path d="M67.94 46.7323C67.94 47.4876 67.6057 48.0566 66.9591 48.5858L4.27611 14.3387H64.0952L67.94 16.8756V22.5678V46.7323Z" fill="#31364A" stroke="#7D839A"/>
<path d="M62.9206 13.8387H5.51929V54.2904H62.9206V13.8387Z" fill="#939AB5"/>
<path d="M35.824 53.7904V14.3387H62.4207V53.7904H35.824Z" fill="#7D839A" stroke="#7D839A"/>
<g filter="url(#filter0_d_2444_25259)">
<path d="M68.44 56.2572C68.44 58.0669 66.8946 59.4508 65.018 59.4508H3.422C1.54542 59.4508 0 58.0669 0 56.2572L1.10387 22.512C1.10387 20.7024 2.64929 18.9991 4.52587 18.9991H64.0245C65.9011 18.9991 67.4465 20.7024 67.4465 22.512L68.44 56.2572Z" fill="url(#paint0_linear_2444_25259)"/>
<path d="M1.6036 22.5284L1.60387 22.5202V22.512C1.60387 20.9552 2.94817 19.4991 4.52587 19.4991H64.0245C65.6022 19.4991 66.9465 20.9552 66.9465 22.512V22.5194L66.9467 22.5268L67.94 56.2643C67.9359 57.7568 66.6551 58.9508 65.018 58.9508H3.422C1.78514 58.9508 0.50447 57.7572 0.500012 56.265L1.6036 22.5284Z" stroke="url(#paint1_linear_2444_25259)"/>
</g>
<path d="M27 40H41" stroke="#282828" stroke-width="2" stroke-linecap="round" stroke-linejoin="round"/>
<path d="M27 38H41" stroke="#DCDCDC" stroke-width="3" stroke-linecap="round" stroke-linejoin="round"/>
</g>
<defs>
<filter id="filter0_d_2444_25259" x="-4" y="14.9991" width="76.4399" height="48.4517" filterUnits="userSpaceOnUse" color-interpolation-filters="sRGB">
<feFlood flood-opacity="0" result="BackgroundImageFix"/>
<feColorMatrix in="SourceAlpha" type="matrix" values="0 0 0 0 0 0 0 0 0 0 0 0 0 0 0 0 0 0 127 0" result="hardAlpha"/>
<feOffset/>
<feGaussianBlur stdDeviation="2"/>
<feComposite in2="hardAlpha" operator="out"/>
<feColorMatrix type="matrix" values="0 0 0 0 0.490196 0 0 0 0 0.513726 0 0 0 0 0.603922 0 0 0 1 0"/>
<feBlend mode="normal" in2="BackgroundImageFix" result="effect1_dropShadow_2444_25259"/>
<feBlend mode="normal" in="SourceGraphic" in2="effect1_dropShadow_2444_25259" result="shape"/>
</filter>
<linearGradient id="paint0_linear_2444_25259" x1="34.22" y1="18.9991" x2="34.22" y2="59.4508" gradientUnits="userSpaceOnUse">
<stop stop-color="#107297"/>
<stop offset="1" stop-color="#278993"/>
</linearGradient>
<linearGradient id="paint1_linear_2444_25259" x1="34.22" y1="18.9991" x2="34.22" y2="59.4508" gradientUnits="userSpaceOnUse">
<stop stop-color="#107297"/>
<stop offset="1" stop-color="#278993"/>
</linearGradient>
<clipPath id="clip0_2444_25259">
<rect width="68.44" height="66" fill="white"/>
</clipPath>
</defs>
</svg>
