<svg width="66" height="66" viewBox="0 0 66 66" fill="none" xmlns="http://www.w3.org/2000/svg">
<g clip-path="url(#clip0_2444_25720)">
<path d="M64.5097 6.3871H38.2161C37.3645 6.3871 36.6194 6.3871 35.7677 7.66452L34.3839 9.58065H3.3C1.49032 9.58065 0 11.2839 0 13.0936V54.929C0 56.7387 1.49032 58.5484 3.3 58.5484H62.7C64.5097 58.5484 66 56.7387 66 54.929V22.5677V13.2V7.66452C66 6.91936 65.3613 6.3871 64.5097 6.3871Z" fill="#6D6D6D"/>
<path d="M64.6161 49.3936C65.4677 48.7548 66 47.7968 66 46.7323V22.5677V13.2V7.66452C66 6.91936 65.3613 6.3871 64.5097 6.3871H38.2161C37.3645 6.3871 36.6194 6.3871 35.7677 7.66452L34.3839 9.58065H3.3C1.59677 9.58065 0.212903 10.9645 0 12.5613L64.6161 49.3936Z" fill="#565656"/>
<path d="M2.2356 13.8387L64.6162 49.1806C65.4679 48.5419 66.0001 47.7968 66.0001 46.7323V22.5677V16.6064L61.955 13.8387H2.2356Z" fill="#262523"/>
<path d="M60.6774 13.8387H5.32251V54.2903H60.6774V13.8387Z" fill="#FAFAFA"/>
<path d="M60.6774 13.8387H34.0645V54.2903H60.6774V13.8387Z" fill="#EFEFEF"/>
<path d="M66 56.2573C66 58.0669 64.5097 59.4508 62.7 59.4508H3.3C1.49032 59.4508 0 58.0669 0 56.2573L1.06452 22.5121C1.06452 20.7024 2.55484 18.9992 4.36452 18.9992H61.7419C63.5516 18.9992 65.0419 20.7024 65.0419 22.5121L66 56.2573Z" fill="#3B2A82"/>
<path d="M65.5742 58.0161L1.27742 21.5032C1.06452 21.8226 1.06452 22.4613 1.06452 22.8871L0 56.4194C0 58.229 1.49032 59.6129 3.3 59.6129H62.7C63.871 59.6129 64.9355 58.9742 65.5742 58.0161Z" fill="#5A55CE"/>
<path d="M33 49V33M33 33L27 39M33 33L39 39" stroke="#282828" stroke-width="2" stroke-linecap="round" stroke-linejoin="round"/>
<path d="M33 46V30M33 30L27 36M33 30L39 36" stroke="white" stroke-width="3" stroke-linecap="round" stroke-linejoin="round"/>
</g>
<defs>
<clipPath id="clip0_2444_25720">
<rect width="66" height="66" fill="white"/>
</clipPath>
</defs>
</svg>
