<svg width="70" height="66" viewBox="0 0 70 66" fill="none" xmlns="http://www.w3.org/2000/svg">
<g clip-path="url(#clip0_2444_25705)">
<path d="M67.6025 6.3871H40.3352C39.452 6.3871 38.6792 6.3871 37.7961 7.66452L36.361 9.58065H4.12584C2.24913 9.58065 0.703613 11.2839 0.703613 13.0936V54.929C0.703613 56.7387 2.24913 58.5484 4.12584 58.5484H65.7258C67.6025 58.5484 69.1481 56.7387 69.1481 54.929V22.5677V13.2V7.66452C69.1481 6.91936 68.4857 6.3871 67.6025 6.3871Z" fill="#6D6D6D"/>
<path d="M67.7129 49.3936C68.5961 48.7548 69.1481 47.7968 69.1481 46.7323V22.5677V13.2V7.66452C69.1481 6.91936 68.4857 6.3871 67.6025 6.3871H40.3352C39.452 6.3871 38.6792 6.3871 37.7961 7.66452L36.361 9.58065H4.12584C2.35953 9.58065 0.924402 10.9645 0.703613 12.5613L67.7129 49.3936Z" fill="#565656"/>
<path d="M3.02197 13.8387L67.713 49.1806C68.5962 48.5419 69.1481 47.7968 69.1481 46.7323V22.5677V16.6064L64.9532 13.8387H3.02197Z" fill="#262523"/>
<path d="M63.6284 13.8387H6.22339V54.2903H63.6284V13.8387Z" fill="#FAFAFA"/>
<path d="M63.6284 13.8387H36.0298V54.2903H63.6284V13.8387Z" fill="#EFEFEF"/>
<path d="M69.4444 56.2573C69.4444 58.0669 67.8989 59.4508 66.0222 59.4508H4.42222C2.54552 59.4508 1 58.0669 1 56.2573L2.10394 22.5121C2.10394 20.7024 3.64946 18.9992 5.52617 18.9992H65.0287C66.9054 18.9992 68.4509 20.7024 68.4509 22.5121L69.4444 56.2573Z" fill="#3B2A82"/>
<path d="M68.7065 58.0161L2.02834 21.5032C1.80756 21.8226 1.80756 22.4613 1.80756 22.8871L0.703613 56.4194C0.703613 58.229 2.24913 59.6129 4.12584 59.6129H65.7258C66.9402 59.6129 68.0441 58.9742 68.7065 58.0161Z" fill="#5A55CE"/>
<path d="M37 31C37 31 37.8492 31.1213 41.364 34.636C44.8787 38.1508 44.8787 43.8492 41.364 47.364C40.1187 48.6092 38.5993 49.4133 37 49.7762M37 31L43 31M37 31L37 37M33 50.9998C33 50.9998 32.1508 50.8785 28.636 47.3638C25.1213 43.849 25.1213 38.1506 28.636 34.6358C29.8813 33.3906 31.4007 32.5865 33 32.2236M33 50.9998L27 51M33 50.9998L33 45" stroke="#282828" stroke-width="2" stroke-linecap="round" stroke-linejoin="round"/>
<path d="M37 28C37 28 37.8492 28.1213 41.364 31.636C44.8787 35.1508 44.8787 40.8492 41.364 44.364C40.1187 45.6092 38.5993 46.4133 37 46.7762M37 28L43 28M37 28L37 34M33 47.9998C33 47.9998 32.1508 47.8785 28.636 44.3638C25.1213 40.849 25.1213 35.1506 28.636 31.6358C29.8813 30.3906 31.4007 29.5865 33 29.2236M33 47.9998L27 48M33 47.9998L33 42" stroke="white" stroke-width="2.5" stroke-linecap="round" stroke-linejoin="round"/>
</g>
<defs>
<clipPath id="clip0_2444_25705">
<rect width="68.4444" height="66" fill="white" transform="translate(0.703613)"/>
</clipPath>
</defs>
</svg>
