<svg width="69" height="66" viewBox="0 0 69 66" fill="none" xmlns="http://www.w3.org/2000/svg">
<g clip-path="url(#clip0_2444_25673)">
<path d="M67.0102 6.3871H39.7429C38.8597 6.3871 38.087 6.3871 37.2038 7.66452L35.7687 9.58065H3.53355C1.65685 9.58065 0.111328 11.2839 0.111328 13.0936V54.929C0.111328 56.7387 1.65685 58.5484 3.53355 58.5484H65.1336C67.0103 58.5484 68.5558 56.7387 68.5558 54.929V22.5677V13.2V7.66452C68.5558 6.91936 67.8934 6.3871 67.0102 6.3871Z" fill="#6D6D6D"/>
<path d="M67.1206 49.3936C68.0038 48.7548 68.5558 47.7968 68.5558 46.7323V22.5677V13.2V7.66452C68.5558 6.91936 67.8934 6.3871 67.0102 6.3871H39.7429C38.8597 6.3871 38.087 6.3871 37.2038 7.66452L35.7687 9.58065H3.53355C1.76724 9.58065 0.332117 10.9645 0.111328 12.5613L67.1206 49.3936Z" fill="#565656"/>
<path d="M2.42969 13.8387L67.1207 49.1806C68.0039 48.5419 68.5559 47.7968 68.5559 46.7323V22.5677V16.6064L64.3609 13.8387H2.42969Z" fill="#262523"/>
<path d="M63.0361 13.8387H5.6311V54.2903H63.0361V13.8387Z" fill="#FAFAFA"/>
<path d="M63.0361 13.8387H35.4375V54.2903H63.0361V13.8387Z" fill="#EFEFEF"/>
<path d="M68.4447 56.2573C68.4447 58.0669 66.8992 59.4508 65.0225 59.4508H3.42247C1.54576 59.4508 0.000244141 58.0669 0.000244141 56.2573L1.10419 22.5121C1.10419 20.7024 2.64971 18.9992 4.52641 18.9992H64.0289C65.9056 18.9992 67.4511 20.7024 67.4511 22.5121L68.4447 56.2573Z" fill="#3B2A82"/>
<path d="M68.1142 58.0161L1.43606 21.5032C1.21527 21.929 1.21527 22.4613 1.21527 22.8871L0.111328 56.4194C0.111328 58.229 1.65685 59.6129 3.53355 59.6129H65.1336C66.3479 59.6129 67.4518 58.9742 68.1142 58.0161Z" fill="#5A55CE"/>
<path d="M29.0002 38V36C29.0002 33.2386 31.2388 31 34.0002 31C36.0506 31 37.8126 32.2341 38.5842 34M34.0002 42.5V44.5M30.8002 49H37.2002C38.8804 49 39.7205 49 40.3622 48.673C40.9267 48.3854 41.3856 47.9265 41.6733 47.362C42.0002 46.7202 42.0002 45.8802 42.0002 44.2V42.8C42.0002 41.1198 42.0002 40.2798 41.6733 39.638C41.3856 39.0735 40.9267 38.6146 40.3622 38.327C39.7205 38 38.8804 38 37.2002 38H30.8002C29.1201 38 28.28 38 27.6383 38.327C27.0738 38.6146 26.6148 39.0735 26.3272 39.638C26.0002 40.2798 26.0002 41.1198 26.0002 42.8V44.2C26.0002 45.8802 26.0002 46.7202 26.3272 47.362C26.6148 47.9265 27.0738 48.3854 27.6383 48.673C28.28 49 29.1201 49 30.8002 49Z" stroke="#282828" stroke-width="2" stroke-linecap="round" stroke-linejoin="round"/>
<path d="M29.0002 36V34C29.0002 31.2386 31.2388 29 34.0002 29C36.0506 29 37.8126 30.2341 38.5842 32M34.0002 40.5V42.5M30.8002 47H37.2002C38.8804 47 39.7205 47 40.3622 46.673C40.9267 46.3854 41.3856 45.9265 41.6733 45.362C42.0002 44.7202 42.0002 43.8802 42.0002 42.2V40.8C42.0002 39.1198 42.0002 38.2798 41.6733 37.638C41.3856 37.0735 40.9267 36.6146 40.3622 36.327C39.7205 36 38.8804 36 37.2002 36H30.8002C29.1201 36 28.28 36 27.6383 36.327C27.0738 36.6146 26.6148 37.0735 26.3272 37.638C26.0002 38.2798 26.0002 39.1198 26.0002 40.8V42.2C26.0002 43.8802 26.0002 44.7202 26.3272 45.362C26.6148 45.9265 27.0738 46.3854 27.6383 46.673C28.28 47 29.1201 47 30.8002 47Z" stroke="white" stroke-width="2.5" stroke-linecap="round" stroke-linejoin="round"/>
</g>
<defs>
<clipPath id="clip0_2444_25673">
<rect width="68.4444" height="66" fill="white" transform="translate(0.111328)"/>
</clipPath>
</defs>
</svg>
