<svg width="66" height="66" viewBox="0 0 66 66" fill="none" xmlns="http://www.w3.org/2000/svg">
<g clip-path="url(#clip0_2444_25688)">
<path d="M64.5097 6.3871H38.2161C37.3645 6.3871 36.6194 6.3871 35.7677 7.66452L34.3839 9.58065H3.3C1.49032 9.58065 0 11.2839 0 13.0936V54.929C0 56.7387 1.49032 58.5484 3.3 58.5484H62.7C64.5097 58.5484 66 56.7387 66 54.929V22.5677V13.2V7.66452C66 6.91936 65.3613 6.3871 64.5097 6.3871Z" fill="#6D6D6D"/>
<path d="M64.6161 49.3936C65.4677 48.7548 66 47.7968 66 46.7323V22.5677V13.2V7.66452C66 6.91936 65.3613 6.3871 64.5097 6.3871H38.2161C37.3645 6.3871 36.6194 6.3871 35.7677 7.66452L34.3839 9.58065H3.3C1.59677 9.58065 0.212903 10.9645 0 12.5613L64.6161 49.3936Z" fill="#565656"/>
<path d="M2.2356 13.8387L64.6162 49.1806C65.4679 48.5419 66.0001 47.7968 66.0001 46.7323V22.5677V16.6064L61.955 13.8387H2.2356Z" fill="#262523"/>
<path d="M60.6774 13.8387H5.32251V54.2903H60.6774V13.8387Z" fill="#FAFAFA"/>
<path d="M60.6774 13.8387H34.0645V54.2903H60.6774V13.8387Z" fill="#EFEFEF"/>
<path d="M66 56.2573C66 58.0669 64.5097 59.4508 62.7 59.4508H3.3C1.49032 59.4508 0 58.0669 0 56.2573L1.06452 22.5121C1.06452 20.7024 2.55484 18.9992 4.36452 18.9992H61.7419C63.5516 18.9992 65.0419 20.7024 65.0419 22.5121L66 56.2573Z" fill="#3B2A82"/>
<path d="M65.5742 58.0161L1.27742 21.5032C1.06452 21.929 1.06452 22.4613 1.06452 22.8871L0 56.4194C0 58.229 1.49032 59.6129 3.3 59.6129H62.7C63.871 59.6129 64.9355 58.9742 65.5742 58.0161Z" fill="#5A55CE"/>
<path d="M44.9225 33.1064L45.8806 32.1484C46.6257 31.4032 46.6257 30.2323 45.8806 29.4871C45.1354 28.7419 43.9645 28.7419 43.2193 29.4871L42.2612 30.4452L44.9225 33.1064Z" fill="#3B2A82"/>
<path d="M33 36V40M33 44H33.01M24 35.9414V44.0586C24 44.4012 24 44.5725 24.0505 44.7253C24.0951 44.8605 24.1682 44.9846 24.2646 45.0893C24.3737 45.2076 24.5234 45.2908 24.823 45.4572L32.223 49.5683C32.5066 49.7259 32.6484 49.8047 32.7985 49.8355C32.9315 49.8629 33.0685 49.8629 33.2015 49.8355C33.3516 49.8047 33.4934 49.7259 33.777 49.5683L41.177 45.4572C41.4766 45.2908 41.6263 45.2076 41.7354 45.0893C41.8318 44.9846 41.9049 44.8605 41.9495 44.7253C42 44.5725 42 44.4012 42 44.0586V35.9414C42 35.5988 42 35.4275 41.9495 35.2747C41.9049 35.1395 41.8318 35.0154 41.7354 34.9107C41.6263 34.7924 41.4766 34.7092 41.177 34.5428L33.777 30.4317C33.4934 30.2741 33.3516 30.1953 33.2015 30.1645C33.0685 30.1371 32.9315 30.1371 32.7985 30.1645C32.6484 30.1953 32.5066 30.2741 32.223 30.4317L24.823 34.5428C24.5234 34.7092 24.3737 34.7924 24.2646 34.9107C24.1682 35.0154 24.0951 35.1395 24.0505 35.2747C24 35.4275 24 35.5988 24 35.9414Z" stroke="#282828" stroke-width="2" stroke-linecap="round" stroke-linejoin="round"/>
<path d="M33 34V38M33 42H33.01M24 33.9414V42.0586C24 42.4012 24 42.5725 24.0505 42.7253C24.0951 42.8605 24.1682 42.9846 24.2646 43.0893C24.3737 43.2076 24.5234 43.2908 24.823 43.4572L32.223 47.5683C32.5066 47.7259 32.6484 47.8047 32.7985 47.8355C32.9315 47.8629 33.0685 47.8629 33.2015 47.8355C33.3516 47.8047 33.4934 47.7259 33.777 47.5683L41.177 43.4572C41.4766 43.2908 41.6263 43.2076 41.7354 43.0893C41.8318 42.9846 41.9049 42.8605 41.9495 42.7253C42 42.5725 42 42.4012 42 42.0586V33.9414C42 33.5988 42 33.4275 41.9495 33.2747C41.9049 33.1395 41.8318 33.0154 41.7354 32.9107C41.6263 32.7924 41.4766 32.7092 41.177 32.5428L33.777 28.4317C33.4934 28.2741 33.3516 28.1953 33.2015 28.1645C33.0685 28.1371 32.9315 28.1371 32.7985 28.1645C32.6484 28.1953 32.5066 28.2741 32.223 28.4317L24.823 32.5428C24.5234 32.7092 24.3737 32.7924 24.2646 32.9107C24.1682 33.0154 24.0951 33.1395 24.0505 33.2747C24 33.4275 24 33.5988 24 33.9414Z" stroke="white" stroke-width="2.5" stroke-linecap="round" stroke-linejoin="round"/>
</g>
<defs>
<clipPath id="clip0_2444_25688">
<rect width="66" height="66" fill="white"/>
</clipPath>
</defs>
</svg>
