<svg width="24" height="24"  fill="none" xmlns="http://www.w3.org/2000/svg">
<path d="M9.88161 18.4049L13.4975 4.91031C13.5731 4.62789 13.4055 4.33759 13.1231 4.26191L7.38438 2.72423C7.10195 2.64855 6.81166 2.81615 6.73598 3.09858L3.12013 16.5931C2.61983 18.4603 3.72787 20.3794 5.595 20.8797C7.46213 21.38 9.38131 20.272 9.88161 18.4049Z" stroke="white" stroke-width="2" stroke-linecap="round" stroke-linejoin="round"/>
<path d="M6.5 20.9999L20.4706 20.9999C20.763 20.9999 21 20.7629 21 20.4705V14.5293" stroke="white" stroke-width="2" stroke-linecap="round" stroke-linejoin="round"/>
<path d="M6.5 17.6H6.502V17.602H6.5V17.6Z" stroke="white" stroke-width="2" stroke-linecap="round" stroke-linejoin="round"/>
<path d="M7.98047 20.6712L20.6421 14.767C20.9071 14.6435 21.0218 14.3285 20.8982 14.0635L18.3873 8.67894C18.2638 8.41395 17.9488 8.2993 17.6838 8.42287L12.0304 11.0591" stroke="white" stroke-width="2" stroke-linecap="round" stroke-linejoin="round"/>
</svg>
